<svg xmlns="http://www.w3.org/2000/svg" viewBox="0 0 411.25 574.76"><defs><style>.cls-1{fill:#ff6f27;}</style></defs><g id="Camada_2" data-name="Camada 2"><g id="Camada_1-2" data-name="Camada 1"><path class="cls-1" d="M387.91,273.53a205.61,205.61,0,0,0-33.77-46.86c-3.43-3.58-7-7-10.67-10.35a201.4,201.4,0,0,0-18.11-14.57l-2-1.41-.67-.48-.92-.66a42.36,42.36,0,0,0-67.51,34.08A42.38,42.38,0,0,0,273,268.42l.75.52a120.49,120.49,0,0,1,27.55,25.89,121.28,121.28,0,0,1-65.71,191.5c-1.37.34-2.74.66-4.13,1A120.6,120.6,0,0,1,155,478.93c-1.69-.78-3.35-1.61-5-2.46a121.74,121.74,0,0,1-48-45.14c-.29-.48-.6-.95-.88-1.44A120.76,120.76,0,0,1,101,308.35l1-1.49,2.42-3.43L150.68,238l2.5-3.54,11.42-16.2,7-9.93L194,176.54l.33-.47a145,145,0,0,0,15.06-28.14,144.87,144.87,0,0,0,10.42-54.18,144.15,144.15,0,0,0-15.23-64.91L189.94,0l-8.35,31.07c-8.07,30.05-40.49,76.72-41.81,78.63L101.85,162l-7.08,9.77L73.4,201.21l-.94,1.3L39.71,247.66l-2.22,3.07A205.5,205.5,0,0,0,78.32,530.48c.34.26.66.54,1,.8a205.94,205.94,0,0,0,19.47,13.46c5.16,3.14,10.45,6.08,15.89,8.77a205.32,205.32,0,0,0,173.75,3.82q4.9-2.16,9.66-4.58a205.9,205.9,0,0,0,18.61-10.67q3.63-2.33,7.15-4.8a206.09,206.09,0,0,0,64.06-263.75Z"/></g></g></svg>