<svg xmlns="http://www.w3.org/2000/svg" xmlns:xlink="http://www.w3.org/1999/xlink" width="82" height="82" viewBox="0 0 82 82">
  <defs>
    <clipPath id="clip-path">
      <rect id="Retângulo_12" data-name="Retângulo 12" width="48.456" height="48.312" fill="#fff"/>
    </clipPath>
  </defs>
  <g id="Icone_Doações" data-name="Icone Doações" transform="translate(-814 -5008)">
    <rect id="Retângulo_13" data-name="Retângulo 13" width="82" height="82" transform="translate(814 5008)" fill="#ffb93f"/>
    <g id="Grupo_15" data-name="Grupo 15" transform="translate(830.92 5024.901)">
      <g id="Grupo_14" data-name="Grupo 14" clip-path="url(#clip-path)">
        <path id="Caminho_45" data-name="Caminho 45" d="M9.861,210.511c-.064.718-.133,1.432-.189,2.146A1.63,1.63,0,0,1,7.9,214.35q-3.093.009-6.186,0A1.605,1.605,0,0,1,0,212.651Q0,203.1,0,193.544a1.6,1.6,0,0,1,1.731-1.723q3.9-.007,7.795,0a1.6,1.6,0,0,1,1.734,1.812c-.027.566-.089,1.131-.142,1.765.171-.077.287-.119.394-.18q2.4-1.362,4.8-2.73a4.964,4.964,0,0,1,2.542-.67c1.693.009,3.386,0,5.079,0a4.78,4.78,0,0,1,3.808,1.721c1.111,1.3,2.2,2.613,3.293,3.931a4.972,4.972,0,0,1,1.076,2.872l3.7-.976q3.155-.834,6.309-1.67a4.578,4.578,0,0,1,5.713,2.737,4.808,4.808,0,0,1-2.177,6.047c-3.174,1.767-6.36,3.515-9.541,5.269-1.041.574-2.077,1.156-3.129,1.71a7.725,7.725,0,0,1-3.625.889q-4.878.011-9.756,0a8.192,8.192,0,0,1-4.24-1.232c-1.308-.781-2.639-1.526-3.93-2.333a2.194,2.194,0,0,0-1.573-.272m.268-3.284a4.718,4.718,0,0,0,.565.023,3.168,3.168,0,0,1,1.994.536c1.4.857,2.84,1.647,4.242,2.5a5.807,5.807,0,0,0,3.15.855q4.451-.034,8.9,0a5.976,5.976,0,0,0,3.025-.767c4.069-2.261,8.15-4.5,12.219-6.762a1.518,1.518,0,0,0-1.324-2.72q-5.437,1.436-10.879,2.854a6.769,6.769,0,0,1-1.517.313c-1.76.039-3.521.026-5.281.011a4.586,4.586,0,0,1-3.054-1.108c-.872-.759-1.717-1.551-2.547-2.356a1.6,1.6,0,0,1,2.2-2.325c.328.286.639.593.959.889,2.121,1.957,1.4,1.661,4.229,1.685.648.006,1.3,0,1.933,0a1.662,1.662,0,0,0-.387-1.467q-1.522-1.808-3.03-3.627a1.883,1.883,0,0,0-1.574-.728c-1.66.019-3.32-.017-4.979.022a2.929,2.929,0,0,0-1.281.336c-1.634.885-3.24,1.822-4.859,2.735a2.728,2.728,0,0,1-2,.614l-.709,8.488M3.254,195.061v16.047H6.571L7.9,195.061Z" transform="translate(0 -166.043)" fill="#fff"/>
        <path id="Caminho_46" data-name="Caminho 46" d="M172.865,9.6a9.75,9.75,0,0,1-2.741,6.82q-3.92,4.147-7.874,8.263a5.226,5.226,0,0,1-7.838-.03c-2.636-2.767-5.272-5.533-7.881-8.326a9.84,9.84,0,0,1,1.341-14.655,8.82,8.82,0,0,1,10.053-.141.618.618,0,0,0,.828.008A8.97,8.97,0,0,1,172.3,6.345,27.55,27.55,0,0,1,173,9.565l-.131.031m-3.24-.255a13.685,13.685,0,0,0-.241-1.463,5.822,5.822,0,0,0-9.749-2.907,1.722,1.722,0,0,1-2.618-.051,5.6,5.6,0,0,0-6.49-1.09,6.591,6.591,0,0,0-1.687,10.365c2.6,2.756,5.225,5.487,7.844,8.223a2.075,2.075,0,0,0,3.221.006q3.947-4.122,7.88-8.259a6.824,6.824,0,0,0,1.84-4.825" transform="translate(-124.54 0)" fill="#fff"/>
      </g>
    </g>
  </g>
</svg>
