<svg xmlns="http://www.w3.org/2000/svg" width="20.014" height="20.014" viewBox="0 0 20.014 20.014">
  <path id="Icone_Telefone" data-name="Icone Telefone" d="M19.443,14.143l-4.378-1.876a.938.938,0,0,0-1.095.27l-1.939,2.369A14.489,14.489,0,0,1,5.105,7.979L7.474,6.04a.936.936,0,0,0,.27-1.095L5.868.567A.944.944,0,0,0,4.793.024L.727.962A.938.938,0,0,0,0,1.877,18.136,18.136,0,0,0,18.138,20.015a.938.938,0,0,0,.915-.727l.938-4.065a.95.95,0,0,0-.548-1.079Z" transform="translate(0 0)" fill="#464646"/>
</svg>
