<svg id="Icone_Login" data-name="Icone Login" xmlns="http://www.w3.org/2000/svg" xmlns:xlink="http://www.w3.org/1999/xlink" width="40.908" height="40.912" viewBox="0 0 40.908 40.912">
  <defs>
    <clipPath id="clip-path">
      <rect id="Retângulo_5" data-name="Retângulo 5" width="40.908" height="40.912" fill="#0e0e0e"/>
    </clipPath>
  </defs>
  <g id="Grupo_3" data-name="Grupo 3" clip-path="url(#clip-path)">
    <path id="Caminho_36" data-name="Caminho 36" d="M36.664,8.02A19.75,19.75,0,0,0,24.751.482a19.844,19.844,0,0,0-16.7,3.747A19.869,19.869,0,0,0,.463,16.2c-.189.867-.262,1.76-.39,2.64-.021.142-.049.283-.074.424v2.4c.1.774.175,1.554.318,2.321a20.187,20.187,0,0,0,9.706,14.053,19.467,19.467,0,0,0,8.925,2.815,2.185,2.185,0,0,1,.308.066h2.4c.776-.1,1.556-.181,2.326-.318a20.086,20.086,0,0,0,11.832-6.654A19.761,19.761,0,0,0,40.8,22.505,19.889,19.889,0,0,0,36.664,8.02M27.408,36.583a17.512,17.512,0,0,1-13.9,0,.453.453,0,0,1-.329-.5c.013-2.184,0-4.367.009-6.551a3.6,3.6,0,0,1,2.743-3.657,4.4,4.4,0,0,1,1.1-.131c1.145-.016,2.291-.006,3.436-.006,0,.021,2.77.006,4.151.078a3.5,3.5,0,0,1,3.028,2.956,11.094,11.094,0,0,1,.069,1.194c.007,2.037,0,4.074.01,6.112a.453.453,0,0,1-.322.5m-11.666-20.6a4.714,4.714,0,1,1,4.7,4.711,4.724,4.724,0,0,1-4.7-4.711M30.61,34.723v-.45c0-1.651.016-3.3-.005-4.953A6.469,6.469,0,0,0,25.412,23c-.491-.1-1-.124-1.54-.188a7.579,7.579,0,0,0,4.152-7.488,7.228,7.228,0,0,0-2.692-5.168,7.611,7.611,0,1,0-8.379,12.6,19.412,19.412,0,0,0-2.352.512,6.394,6.394,0,0,0-4.289,5.921c-.032,1.69-.01,3.382-.012,5.072,0,.141,0,.282,0,.449A17.505,17.505,0,0,1,20.11,2.915a17.516,17.516,0,0,1,10.5,31.808" transform="translate(0 0.001)" fill="#0e0e0e"/>
  </g>
</svg>
