<svg xmlns="http://www.w3.org/2000/svg" viewBox="0 0 200 80">
  <g id="Logo_Roda_pé" data-name="Logo Roda pé" transform="translate(-371.991 -3942.161)">
    <path id="Caminho_157" data-name="Caminho 157" d="M371.991,4154.859" transform="translate(0 -174.43)" fill="none" stroke="#5ae8ff" stroke-width="1"/>
    <g id="Grupo_72" data-name="Grupo 72" transform="translate(377.285 3942.161)">
      <g id="Grupo_68" data-name="Grupo 68" transform="translate(61.398 33.716)">
        <g id="Grupo_67" data-name="Grupo 67">
          <path id="Caminho_158" data-name="Caminho 158" d="M763.258,4140.108v12.283h-5.2V4147H747.8v5.389h-5.131v-12.283c0-6.832,4.137-10.552,10.295-10.552S763.258,4133.276,763.258,4140.108Zm-5.2,2.725v-3.206c0-3.817-2.052-5.644-5.131-5.644-3.111,0-5.131,1.826-5.131,5.644v3.206Z" transform="translate(-742.669 -4129.557)" fill="#181818"/>
          <path id="Caminho_159" data-name="Caminho 159" d="M897.308,4148.02c0,3.88-3.079,6.125-8.98,6.125h-11.61v-22.45h10.968c5.612,0,8.5,2.341,8.5,5.837a5.4,5.4,0,0,1-2.983,4.938A5.546,5.546,0,0,1,897.308,4148.02Zm-15.426-12.412v5.292h5.164c2.534,0,3.913-.9,3.913-2.662s-1.379-2.63-3.913-2.63Zm10.2,11.867c0-1.894-1.443-2.791-4.137-2.791h-6.062v5.548h6.062C890.638,4150.232,892.081,4149.4,892.081,4147.475Z" transform="translate(-852.601 -4131.31)" fill="#181818"/>
          <path id="Caminho_160" data-name="Caminho 160" d="M996.331,4141.166c0-6.671,5.2-11.609,12.283-11.609,7.056,0,12.283,4.907,12.283,11.609s-5.228,11.609-12.283,11.609C1001.526,4152.775,996.331,4147.837,996.331,4141.166Zm19.307,0a7.025,7.025,0,1,0-7.024,7.185A6.847,6.847,0,0,0,1015.638,4141.166Z" transform="translate(-950.693 -4129.557)" fill="#181818"/>
          <path id="Caminho_161" data-name="Caminho 161" d="M1178.22,4131.695v13.245c0,6.287-3.56,9.59-9.717,9.59a9.607,9.607,0,0,1-7.088-2.566,9.579,9.579,0,0,1-7.056,2.566c-6.158,0-9.717-3.3-9.717-9.59v-13.245h5.2v13.086c0,3.72,1.572,5.324,4.458,5.324,2.854,0,4.522-1.6,4.522-5.324v-13.086h5.2v13.086c0,3.72,1.668,5.324,4.554,5.324,2.823,0,4.426-1.6,4.426-5.324v-13.086Z" transform="translate(-1072.32 -4131.31)" fill="#181818"/>
          <path id="Caminho_162" data-name="Caminho 162" d="M1350.886,4131.695h10.2c7.344,0,12.379,4.426,12.379,11.225s-5.035,11.225-12.379,11.225h-10.2Zm9.942,18.185c4.458,0,7.376-2.662,7.376-6.959s-2.918-6.959-7.376-6.959h-4.747v13.919Z" transform="translate(-1241.457 -4131.31)" fill="#181818"/>
        </g>
      </g>
      <g id="Grupo_70" data-name="Grupo 70" transform="translate(61.923 59.72)">
        <g id="Grupo_69" data-name="Grupo 69">
          <path id="Caminho_163" data-name="Caminho 163" d="M748.093,4275.925a2.365,2.365,0,0,1,2.359,1.553h-.6a1.782,1.782,0,0,0-1.758-1.105,2.174,2.174,0,0,0,0,4.331,1.791,1.791,0,0,0,1.758-1.091h.6a2.371,2.371,0,0,1-2.359,1.538,2.614,2.614,0,0,1,0-5.224Z" transform="translate(-745.587 -4275.596)" fill="#181818"/>
          <path id="Caminho_164" data-name="Caminho 164" d="M787.123,4286.273a2.06,2.06,0,1,1,2.015-2.06A1.95,1.95,0,0,1,787.123,4286.273Zm0-.447a1.617,1.617,0,0,0,.007-3.223,1.618,1.618,0,0,0-.007,3.223Z" transform="translate(-778.021 -4280.705)" fill="#181818"/>
          <path id="Caminho_165" data-name="Caminho 165" d="M826.582,4283.861c0-.887-.462-1.341-1.172-1.341s-1.238.483-1.238,1.458v2.168h-.505v-2.286c0-.887-.469-1.341-1.18-1.341-.733,0-1.238.483-1.238,1.458v2.168h-.513v-4h.513v.69a1.427,1.427,0,0,1,1.326-.763,1.478,1.478,0,0,1,1.48.982,1.456,1.456,0,0,1,1.444-.982,1.537,1.537,0,0,1,1.59,1.729v2.344h-.506Z" transform="translate(-807.214 -4280.637)" fill="#181818"/>
          <path id="Caminho_166" data-name="Caminho 166" d="M873.807,4286.483h-.513v-.7a1.446,1.446,0,0,1-1.363.769,1.552,1.552,0,0,1-1.627-1.729v-2.338h.506v2.279a1.169,1.169,0,0,0,1.216,1.34c.747,0,1.268-.468,1.268-1.443v-2.176h.513Z" transform="translate(-847.865 -4280.973)" fill="#181818"/>
          <path id="Caminho_167" data-name="Caminho 167" d="M907.432,4283.861a1.17,1.17,0,0,0-1.216-1.341c-.748,0-1.268.47-1.268,1.443v2.183h-.513v-4h.513v.683a1.46,1.46,0,0,1,1.363-.755,1.553,1.553,0,0,1,1.627,1.729v2.344h-.506Z" transform="translate(-875.856 -4280.637)" fill="#181818"/>
          <path id="Caminho_168" data-name="Caminho 168" d="M937.712,4274.464a.374.374,0,0,1,.748,0,.374.374,0,1,1-.748,0Zm.117,1.136h.513v4h-.513Z" transform="translate(-903.145 -4274.091)" fill="#181818"/>
          <path id="Caminho_169" data-name="Caminho 169" d="M956.454,4275.944a1.739,1.739,0,0,1,1.575.922v-2.285h.513V4280h-.513v-.895a1.668,1.668,0,0,1-1.583.953,2.064,2.064,0,0,1,.007-4.118Zm.088.447a1.461,1.461,0,0,0-1.487,1.6,1.492,1.492,0,1,0,1.487-1.6Z" transform="translate(-916.941 -4274.494)" fill="#181818"/>
          <path id="Caminho_170" data-name="Caminho 170" d="M992.084,4282.155a1.669,1.669,0,0,1,1.583.938v-.879h.513v4h-.513v-.887a1.689,1.689,0,0,1-1.59.945,2.065,2.065,0,0,1,.007-4.118Zm.1.448a1.46,1.46,0,0,0-1.487,1.6,1.492,1.492,0,1,0,1.487-1.6Z" transform="translate(-946.167 -4280.705)" fill="#181818"/>
          <path id="Caminho_171" data-name="Caminho 171" d="M1027.731,4275.944a1.739,1.739,0,0,1,1.576.922v-2.285h.512V4280h-.512v-.895a1.668,1.668,0,0,1-1.583.953,2.064,2.064,0,0,1,.007-4.118Zm.088.447a1.461,1.461,0,0,0-1.487,1.6,1.492,1.492,0,1,0,1.487-1.6Z" transform="translate(-975.395 -4274.494)" fill="#181818"/>
          <path id="Caminho_172" data-name="Caminho 172" d="M1063.415,4286.273a2.061,2.061,0,0,1,0-4.118,1.8,1.8,0,0,1,1.89,1.854,3.5,3.5,0,0,1-.015.4h-3.319a1.4,1.4,0,0,0,1.443,1.43,1.239,1.239,0,0,0,1.29-.894h.542A1.759,1.759,0,0,1,1063.415,4286.273Zm-1.443-2.278h2.813a1.309,1.309,0,0,0-1.392-1.4A1.381,1.381,0,0,0,1061.971,4284Z" transform="translate(-1004.621 -4280.705)" fill="#181818"/>
          <path id="Caminho_173" data-name="Caminho 173" d="M1118.214,4276.635h-2.162v1.913h1.942v.425h-1.942v1.941h2.162v.425h-2.675v-5.127h2.675Z" transform="translate(-1048.978 -4275.829)" fill="#181818"/>
          <path id="Caminho_174" data-name="Caminho 174" d="M1142.075,4282.482l1.348,3.5,1.348-3.5h.542l-1.6,4h-.579l-1.6-4Z" transform="translate(-1070.29 -4280.973)" fill="#181818"/>
          <path id="Caminho_175" data-name="Caminho 175" d="M1175.207,4282.155a1.669,1.669,0,0,1,1.583.938v-.879h.513v4h-.513v-.887a1.689,1.689,0,0,1-1.59.945,2.065,2.065,0,0,1,.007-4.118Zm.1.448a1.46,1.46,0,0,0-1.487,1.6,1.492,1.492,0,1,0,1.487-1.6Z" transform="translate(-1096.343 -4280.705)" fill="#181818"/>
          <path id="Caminho_176" data-name="Caminho 176" d="M1213.234,4283.861a1.17,1.17,0,0,0-1.216-1.341c-.748,0-1.268.47-1.268,1.443v2.183h-.513v-4h.513v.683a1.46,1.46,0,0,1,1.363-.755,1.553,1.553,0,0,1,1.627,1.729v2.344h-.506Z" transform="translate(-1126.638 -4280.637)" fill="#181818"/>
          <path id="Caminho_177" data-name="Caminho 177" d="M1244.774,4282.155a1.681,1.681,0,0,1,1.583.931v-.872h.513v4.1a1.934,1.934,0,0,1-3.781.5h.505a1.369,1.369,0,0,0,1.407.916,1.3,1.3,0,0,0,1.356-1.413v-.99a1.685,1.685,0,0,1-1.583.945,2.065,2.065,0,0,1,0-4.118Zm.1.448a1.46,1.46,0,0,0-1.488,1.6,1.492,1.492,0,1,0,1.488-1.6Z" transform="translate(-1153.394 -4280.705)" fill="#181818"/>
          <path id="Caminho_178" data-name="Caminho 178" d="M1280.463,4286.273a2.061,2.061,0,0,1,0-4.118,1.8,1.8,0,0,1,1.891,1.854,3.444,3.444,0,0,1-.015.4h-3.319a1.4,1.4,0,0,0,1.443,1.43,1.239,1.239,0,0,0,1.29-.894h.542A1.758,1.758,0,0,1,1280.463,4286.273ZM1279.02,4284h2.814a1.309,1.309,0,0,0-1.393-1.4A1.382,1.382,0,0,0,1279.02,4284Z" transform="translate(-1182.62 -4280.705)" fill="#181818"/>
          <path id="Caminho_179" data-name="Caminho 179" d="M1313.284,4274.582h.513V4280h-.513Z" transform="translate(-1211.146 -4274.494)" fill="#181818"/>
          <path id="Caminho_180" data-name="Caminho 180" d="M1330.106,4274.464a.374.374,0,0,1,.747,0,.374.374,0,1,1-.747,0Zm.117,1.136h.513v4h-.513Z" transform="translate(-1224.941 -4274.091)" fill="#181818"/>
          <path id="Caminho_181" data-name="Caminho 181" d="M1348.539,4286.273c-.909,0-1.546-.454-1.612-1.187h.528c.044.439.425.755,1.077.755.572,0,.894-.308.894-.689,0-.989-2.4-.411-2.4-1.912,0-.594.564-1.085,1.407-1.085a1.3,1.3,0,0,1,1.465,1.224h-.513a.855.855,0,0,0-.967-.785c-.535,0-.872.285-.872.638,0,1.083,2.367.506,2.389,1.919C1349.931,4285.8,1349.367,4286.273,1348.539,4286.273Z" transform="translate(-1238.735 -4280.705)" fill="#181818"/>
          <path id="Caminho_182" data-name="Caminho 182" d="M1375.425,4278.338h-.557v-.432h.557v-1h.52v1h1.1v.432h-1.1v2.484c0,.491.168.644.63.644h.469v.441h-.55c-.7,0-1.069-.287-1.069-1.085Z" transform="translate(-1261.649 -4276.396)" fill="#181818"/>
          <path id="Caminho_183" data-name="Caminho 183" d="M1399.143,4274.464a.374.374,0,0,1,.747,0,.374.374,0,1,1-.747,0Zm.117,1.136h.513v4h-.513Z" transform="translate(-1281.557 -4274.091)" fill="#181818"/>
          <path id="Caminho_184" data-name="Caminho 184" d="M1417.905,4282.155a1.727,1.727,0,0,1,1.839,1.362h-.55a1.219,1.219,0,0,0-1.29-.922,1.638,1.638,0,0,0,0,3.247,1.216,1.216,0,0,0,1.29-.932h.55a1.753,1.753,0,0,1-1.839,1.363,2.063,2.063,0,0,1,0-4.118Z" transform="translate(-1295.351 -4280.705)" fill="#181818"/>
          <path id="Caminho_185" data-name="Caminho 185" d="M1450.99,4282.155a1.669,1.669,0,0,1,1.583.938v-.879h.513v4h-.513v-.887a1.688,1.688,0,0,1-1.59.945,2.065,2.065,0,0,1,.007-4.118Zm.1.448a1.46,1.46,0,0,0-1.487,1.6,1.492,1.492,0,1,0,1.487-1.6Z" transform="translate(-1322.508 -4280.705)" fill="#181818"/>
        </g>
      </g>
      <g id="Grupo_71" data-name="Grupo 71" transform="translate(0)">
        <path id="Caminho_186" data-name="Caminho 186" d="M515.478,4267.5l-3.206,4.345c.219.115.439.225.663.329a16.032,16.032,0,0,0,10.168,1.112l-5.416-5.9A1.433,1.433,0,0,0,515.478,4267.5Z" transform="translate(-492.326 -4208.486)" fill="none"/>
        <path id="Caminho_187" data-name="Caminho 187" d="M467.259,4175.2q.026-.538.041-1.077c.01-.363.017-.726.019-1.087a34.687,34.687,0,0,0-.557-5.905q-.063-.357-.132-.714l-.321.456-.14.2a16.06,16.06,0,0,0,.008,16.162c.038.064.078.128.117.191q.192-1.077.354-2.16C466.948,4179.25,467.162,4177.23,467.259,4175.2Z" transform="translate(-452.733 -4126.069)" fill="none"/>
        <path id="Caminho_188" data-name="Caminho 188" d="M592.232,4152.245c-.412.694-.791,1.414-1.148,2.132-.131.292-.32.711-.453,1-.044.116-.343.871-.4,1.007-.132.387-.276.824-.4,1.213a19.35,19.35,0,0,0-.615,3.021c-.043.358-.077.717-.1,1.079-.024.413-.035.827-.028,1.242a26.023,26.023,0,0,0,1.563,8.05c.43,1.24.928,2.46,1.464,3.66a16.6,16.6,0,0,0,1.441-1.182,16.1,16.1,0,0,0,.181-23.519c-.386.547-.762,1.1-1.12,1.668Q592.42,4151.928,592.232,4152.245Z" transform="translate(-555.323 -4112.563)" fill="none"/>
        <path id="Caminho_189" data-name="Caminho 189" d="M451.336,4334.222q-.309,1.121-.619,2.24c-.373,1.316-.752,2.643-1.127,4.018a24.5,24.5,0,0,0,3.141-2.864c.453-.484.9-.985,1.328-1.5a27.365,27.365,0,0,1-2.589-1.789C451.425,4334.294,451.381,4334.257,451.336,4334.222Z" transform="translate(-440.922 -4263.684)" fill="#181818"/>
        <path id="Caminho_190" data-name="Caminho 190" d="M434.878,4038.2c1.233,3.133,2.529,6.294,3.739,9.476l2.842-3.918A34.488,34.488,0,0,0,434.878,4038.2Z" transform="translate(-428.857 -4020.922)" fill="#181818"/>
        <path id="Caminho_191" data-name="Caminho 191" d="M627.056,4347.51c-.926-1.515-1.9-3.107-2.859-4.715a27.255,27.255,0,0,1-2.475,1.419A33.934,33.934,0,0,0,627.056,4347.51Z" transform="translate(-582.085 -4270.713)" fill="#181818"/>
        <path id="Caminho_192" data-name="Caminho 192" d="M458.752,4082.189c.4,1.464.76,2.936,1.045,4.415l6.138-8.7.333-.471c-.217-.2-.427-.4-.629-.622l-6.238-6.715h0q-.442-.507-.9-1l-2.842,3.918q.44,1.158.865,2.321C457.349,4077.61,458.111,4079.9,458.752,4082.189Z" transform="translate(-445.899 -4046.257)" fill="#181818"/>
        <path id="Caminho_193" data-name="Caminho 193" d="M463.469,4274.21l.008-.011q.232-.308.459-.622l4.892-6.63a16.188,16.188,0,0,1-6.384-6c-.567,3.183-1.323,6.345-2.148,9.485-.325,1.236-.66,2.468-1,3.7.045.037.088.072.133.107a27.353,27.353,0,0,0,2.589,1.789q.746-.882,1.45-1.815Z" transform="translate(-448.883 -4203.591)" fill="#181818"/>
        <path id="Caminho_194" data-name="Caminho 194" d="M592.028,4099.276l.1.069a15.9,15.9,0,0,1,2.018,1.625,52.068,52.068,0,0,1,4.563-5.534c.873-.932,1.774-2,2.691-3.087a27,27,0,0,0-2.407-1.937l-.264-.187c-1.23.679-2.433,1.394-3.63,2.133-.162.1-.323.2-.484.3h0l-5.032,2.633a5.628,5.628,0,0,0,2.445,3.983Z" transform="translate(-555.728 -4063.585)" fill="#ffb93f"/>
        <path id="Caminho_195" data-name="Caminho 195" d="M518.517,4057.641a6.243,6.243,0,0,0,.818,3.1l.932-1.321,2.979-4.223.044-.062a19.271,19.271,0,0,0,2-3.743c-.166-.013-.333-.021-.5-.021A6.273,6.273,0,0,0,518.517,4057.641Z" transform="translate(-497.448 -4031.721)" fill="#ffb93f"/>
        <path id="Caminho_196" data-name="Caminho 196" d="M452.994,3978.533a27.274,27.274,0,0,0-4.491-6.231q-.684-.714-1.419-1.376a26.852,26.852,0,0,0-2.407-1.937l-.264-.187-.089-.063-.124-.087a5.631,5.631,0,0,0-8.976,4.531,5.632,5.632,0,0,0,2.487,4.673l.1.069a15.89,15.89,0,0,1,2.018,1.623,16.11,16.11,0,0,1-.181,23.518,16.292,16.292,0,0,1-1.441,1.183,15.993,15.993,0,0,1-5.47,2.582c-.181.047-.365.089-.549.13a16.065,16.065,0,0,1-10.168-1.112c-.224-.1-.445-.215-.663-.328a16.191,16.191,0,0,1-6.384-6c-.039-.064-.079-.127-.117-.192a16.061,16.061,0,0,1-.008-16.162l.14-.2.321-.455,6.139-8.7.333-.471,1.518-2.154.932-1.32,2.979-4.224.044-.062A19.387,19.387,0,0,0,428.618,3946l-1.949-3.835-1.11,4.131c-1.073,4-5.385,10.2-5.56,10.456l-5.043,6.953-.942,1.3-2.842,3.918-.125.173-4.355,6-.294.408a27.325,27.325,0,0,0,5.429,37.2c.045.035.088.072.133.107a27.165,27.165,0,0,0,2.589,1.789q1.028.628,2.112,1.167a27.3,27.3,0,0,0,23.1.507q.652-.287,1.285-.608a27.485,27.485,0,0,0,2.475-1.419c.321-.207.638-.419.95-.639a27.4,27.4,0,0,0,8.519-35.07Z" transform="translate(-401.413 -3942.161)" fill="#ff6f27"/>
        <path id="Caminho_197" data-name="Caminho 197" d="M580.433,4291.248c-.671-1.3-1.331-2.645-1.942-4.014a16,16,0,0,1-5.47,2.583c-.182.047-.365.089-.549.129l3.773,4.113q.434.469.883.923a37.76,37.76,0,0,0,4.2,3.667,27.832,27.832,0,0,0,2.475-1.418c-.9-1.519-1.794-3.052-2.612-4.552Q580.8,4291.957,580.433,4291.248Z" transform="translate(-541.696 -4225.149)" fill="#181818"/>
        <path id="Caminho_198" data-name="Caminho 198" d="M506.228,4074.447c-1.23.679-2.433,1.395-3.63,2.134-.162.1-.323.2-.484.3h0l-5.032,2.633-1.821.953a10.277,10.277,0,0,1-11.666-1.491l-.333.472-6.138,8.7c.046.238.09.476.132.715a34.676,34.676,0,0,1,.557,5.9c0,.363-.009.726-.019,1.087s-.023.719-.041,1.078c-.1,2.03-.311,4.051-.611,6.063q-.161,1.083-.354,2.162a16.189,16.189,0,0,0,6.384,6l3.206-4.346a1.433,1.433,0,0,1,2.209-.118l5.416,5.9q.276-.059.549-.128a16.008,16.008,0,0,0,5.47-2.583c-.536-1.2-1.034-2.419-1.464-3.66a26.014,26.014,0,0,1-1.563-8.048c-.007-.416,0-.831.028-1.244.021-.36.054-.719.1-1.078a19.33,19.33,0,0,1,.615-3.02c.128-.39.272-.827.4-1.214.054-.137.352-.89.4-1.007.132-.289.322-.708.453-1,.357-.719.735-1.437,1.148-2.132.126-.21.254-.42.387-.627.358-.567.734-1.121,1.12-1.668a52.112,52.112,0,0,1,4.564-5.534c.873-.932,1.774-1.995,2.691-3.087a59.273,59.273,0,0,1,5.08-5.586A46.1,46.1,0,0,0,506.228,4074.447Z" transform="translate(-463.228 -4047.808)" fill="#181818"/>
        <path id="Caminho_199" data-name="Caminho 199" d="M525.654,4051.429c-.12-.016-.24-.029-.361-.039-.166-.013-.333-.021-.5-.021a6.275,6.275,0,1,0,.864.06Z" transform="translate(-497.448 -4031.721)" fill="#181818"/>
      </g>
    </g>
  </g>
</svg>
