<svg xmlns="http://www.w3.org/2000/svg" viewBox="0 0 260.34 42.71"><defs><style>.cls-1{fill:#fff;}</style></defs><g id="Camada_2" data-name="Camada 2"><g id="Camada_1-2" data-name="Camada 1"><path class="cls-1" d="M8.66,11.53V42.61s-.07.1-.15.1H.15c-.08,0-.15-.05-.15-.1V.1C0,0,.14,0,.24,0L26.29,13c4.53,2.26,8.78,4.61,13.55,6.8,2.53,1.16,4.07,1.18,6.51,0q19.07-9.43,38-19.19a.19.19,0,0,1,.24.06C86.69,5.1,86,6.87,80.8,9.54,69.46,15.34,58,21,46.67,26.86a7.07,7.07,0,0,1-7.4,0c-9.73-5.06-19.63-10-30.37-15.42C8.8,11.4,8.66,11.45,8.66,11.53Z"/><path class="cls-1" d="M223.05,4.12h8.49c.48,0,.86.23.86.51V16.09c0,.91,2,1.27,2.9.52l0,0c3.35-2.9,8.24-3.76,13.87-3.24S259.6,15.83,260,19.19c.66,6,.22,12,.2,18.14,0,.28-.39.51-.86.51h-8.16c-.48,0-.87-.23-.87-.51,0-4.26.38-8.48-.2-12.66a7.14,7.14,0,0,0-4.3-5c-5-2-11.81,0-12.67,3.63-.74,3.11-.48,6.29-.61,9.44-.06,1.46,0,2.92,0,4.51,0,.28-.39.51-.87.51h-8.57c-.48,0-.87-.23-.87-.51V4.63C222.18,4.35,222.57,4.12,223.05,4.12Z"/><path class="cls-1" d="M129.81,32.9c-5.52,5.36-17.71,7.2-27.86,4.47-9.47-2.54-14.08-9.6-10.45-16,3.28-5.78,13.85-9.16,24.58-7.87,11.73,1.42,17.2,6.17,15.87,14.06H101.63c.33,2.76,2.87,4.16,6.85,4.87,5,.88,9.12.09,12.53-2.41ZM101.87,22.31h19.2C117.36,17.94,107.36,17.81,101.87,22.31Z"/><path class="cls-1" d="M219.48,22.79l-9.42,1.44c-4.36-4.52-8.4-5.91-14.24-5-5.62.9-8.87,3.62-8.58,7.17s3.48,5.59,9.14,6.22c6.14.69,10.08-.75,13.35-4.94L219.15,29c.11,5.23-9.38,9.7-20.69,9.54-12.74-.18-21.11-4.55-21.9-11.73s7.09-12.73,19.35-13.58C207.88,12.43,217.44,16.23,219.48,22.79Z"/><path class="cls-1" d="M136.39,30.8l9-1.64c2.93,3.2,7.52,4.26,13.3,3.29,1.34-.23,3.39-1.29,3.23-1.76-.27-.82-1.77-1.82-3.16-2.13a63.86,63.86,0,0,0-7.75-.82c-8.83-.77-13.08-3-13.16-7-.08-3.83,4.7-6.61,12.77-7.41,9-.89,17.16,1.72,19.79,6.56l-8.79,1.93a11.35,11.35,0,0,0-10-2.57,4.76,4.76,0,0,0-3,1.88c-.18.36,1.63,1.38,2.82,1.59,2.67.46,5.51.61,8.28.87,8.67.8,13,3.16,13,7.14,0,4.19-4.33,6.76-12.85,7.62C148.13,39.52,137,36.08,136.39,30.8Z"/><path class="cls-1" d="M15.4,42.69a10.62,10.62,0,0,0-3,0c-.8.12-1.5-.28-1.5-.8V16.3c0-.12.19-.18.33-.11l18.81,9.35c3.33,1.65,6.67,3.31,9.9,5a6.08,6.08,0,0,0,6.47,0c5-2.55,10.13-5,15.36-7.58a.26.26,0,0,1,.34.08c1.21,3,.07,5.09-3.66,6.8C53.59,32.07,49,34.57,44,37.12a2.22,2.22,0,0,1-1.93,0L17.17,24.64c-.14-.07-.33,0-.33.11,0,4.49,0,12.79,0,17.14C16.85,42.4,16.18,42.8,15.4,42.69Z"/></g></g></svg>